G04*
G04 #@! TF.GenerationSoftware,Altium Limited,Altium Designer,18.1.9 (240)*
G04*
G04 Layer_Color=8388736*
%FSLAX43Y43*%
%MOMM*%
G71*
G01*
G75*
%ADD11C,0.200*%
%ADD18C,0.100*%
%ADD19C,0.050*%
%ADD25R,1.005X1.175*%
%ADD26R,1.553X1.353*%
%ADD27R,1.353X1.553*%
%ADD28R,1.203X3.003*%
%ADD29R,0.803X1.903*%
%ADD30R,7.703X7.703*%
%ADD31R,1.703X1.703*%
%ADD32C,1.703*%
%ADD33R,1.727X1.727*%
%ADD34C,3.711*%
%ADD35R,3.203X3.203*%
%ADD36R,3.703X3.303*%
%ADD37R,3.303X3.303*%
%ADD38C,5.203*%
D11*
X100828Y142264D02*
Y149122D01*
X107940D01*
Y142264D02*
Y149122D01*
X100828Y142264D02*
X107940D01*
X103749Y146201D02*
X105019D01*
X104384Y145566D02*
Y146836D01*
X93462Y142264D02*
Y149122D01*
X100574D01*
Y142264D02*
Y149122D01*
X93462Y142264D02*
X100574D01*
X96383Y146201D02*
X97653D01*
X97018Y145566D02*
Y146836D01*
X86116Y142264D02*
Y149122D01*
X93228D01*
Y142264D02*
Y149122D01*
X86116Y142264D02*
X93228D01*
X89037Y146201D02*
X90307D01*
X89672Y145566D02*
Y146836D01*
X78750Y142264D02*
Y149122D01*
X85862D01*
Y142264D02*
Y149122D01*
X78750Y142264D02*
X85862D01*
X81671Y146201D02*
X82941D01*
X82306Y145566D02*
Y146836D01*
D18*
X81492Y135070D02*
X84492D01*
X81492Y133670D02*
X84492D01*
Y135070D01*
X81492Y133670D02*
Y135070D01*
X80269Y140292D02*
X81619D01*
X80269Y138092D02*
X81619D01*
Y140292D01*
X80269Y138092D02*
Y140292D01*
X83399Y140292D02*
X84749D01*
X83399Y138092D02*
X84749D01*
Y140292D01*
X83399Y138092D02*
Y140292D01*
X86149Y137755D02*
Y139105D01*
X88349Y137755D02*
Y139105D01*
X86149D02*
X88349D01*
X86149Y137755D02*
X88349D01*
X82992Y133870D02*
Y134870D01*
X82492Y134370D02*
X83492D01*
X80944Y138692D02*
Y139692D01*
X80444Y139192D02*
X81444D01*
X84074Y138692D02*
Y139692D01*
X83574Y139192D02*
X84574D01*
X86749Y138430D02*
X87749D01*
X87249Y137930D02*
Y138930D01*
D19*
X81242Y135970D02*
X84742D01*
X81242Y132770D02*
X84742D01*
Y135970D01*
X81242Y132770D02*
Y135970D01*
X79994Y140892D02*
X81894D01*
X79994Y137492D02*
X81894D01*
Y140892D01*
X79994Y137492D02*
Y140892D01*
X83124Y140892D02*
X85024D01*
X83124Y137492D02*
X85024D01*
Y140892D01*
X83124Y137492D02*
Y140892D01*
X85549Y137480D02*
Y139380D01*
X88949Y137480D02*
Y139380D01*
X85549D02*
X88949D01*
X85549Y137480D02*
X88949D01*
D25*
X83942Y135255D02*
D03*
X82042D02*
D03*
X82992Y133485D02*
D03*
D26*
X80944Y140067D02*
D03*
Y138317D02*
D03*
X84074Y140067D02*
D03*
Y138317D02*
D03*
D27*
X86374Y138430D02*
D03*
X88124D02*
D03*
D28*
X106859Y147114D02*
D03*
X101909D02*
D03*
X99493D02*
D03*
X94543D02*
D03*
X92147D02*
D03*
X87197D02*
D03*
X84781D02*
D03*
X79831D02*
D03*
D29*
X105009Y143764D02*
D03*
X103759D02*
D03*
X97643D02*
D03*
X96393D02*
D03*
X90297D02*
D03*
X89047D02*
D03*
X82931D02*
D03*
X81681D02*
D03*
D30*
X90551Y102743D02*
D03*
X108839Y112395D02*
D03*
D31*
X109855Y147701D02*
D03*
D32*
X112395D02*
D03*
X114935D02*
D03*
D33*
X123063Y139065D02*
D03*
X128143D02*
D03*
X133223D02*
D03*
X62611Y138938D02*
D03*
X67691D02*
D03*
X72771D02*
D03*
X176403Y91059D02*
D03*
X171323D02*
D03*
X166243D02*
D03*
X19812D02*
D03*
X24892D02*
D03*
X29972D02*
D03*
X79629Y91313D02*
D03*
X84709D02*
D03*
X89789D02*
D03*
X106426D02*
D03*
X111506D02*
D03*
X116586D02*
D03*
X54864Y132715D02*
D03*
X49784D02*
D03*
X44704D02*
D03*
X151765Y132588D02*
D03*
X146685D02*
D03*
X141605D02*
D03*
D34*
X155000Y91821D02*
D03*
Y121821D02*
D03*
X125000Y91821D02*
D03*
Y121821D02*
D03*
X41000Y122000D02*
D03*
Y92000D02*
D03*
X71000Y122000D02*
D03*
Y92000D02*
D03*
D35*
X157700Y100821D02*
D03*
Y105021D02*
D03*
X38300Y113000D02*
D03*
Y108800D02*
D03*
D36*
X150850Y87271D02*
D03*
X129750D02*
D03*
X150850Y126471D02*
D03*
X129750D02*
D03*
X45150Y126550D02*
D03*
X66250D02*
D03*
X45150Y87350D02*
D03*
X66250D02*
D03*
D37*
X146450Y87271D02*
D03*
X138250D02*
D03*
X142350D02*
D03*
X134150D02*
D03*
X146450Y126471D02*
D03*
X142350D02*
D03*
X134150D02*
D03*
X138250D02*
D03*
X49550Y126550D02*
D03*
X57750D02*
D03*
X53650D02*
D03*
X61850D02*
D03*
X49550Y87350D02*
D03*
X53650D02*
D03*
X61850D02*
D03*
X57750D02*
D03*
D38*
X19812Y105021D02*
D03*
X67691Y159385D02*
D03*
X176403Y105021D02*
D03*
X98044Y86106D02*
D03*
X128143Y159385D02*
D03*
M02*
