G04*
G04 #@! TF.GenerationSoftware,Altium Limited,Altium Designer,18.1.9 (240)*
G04*
G04 Layer_Color=65535*
%FSLAX43Y43*%
%MOMM*%
G71*
G01*
G75*
%ADD10C,0.250*%
%ADD11C,0.200*%
%ADD12C,0.150*%
%ADD13C,0.254*%
%ADD14R,2.400X15.000*%
%ADD15R,36.195X36.127*%
%ADD16R,2.400X15.000*%
%ADD17R,36.195X36.127*%
%ADD18C,0.100*%
%ADD19C,0.050*%
D10*
X90676Y104793D02*
G03*
X90676Y104793I-125J0D01*
G01*
X108964Y114445D02*
G03*
X108964Y114445I-125J0D01*
G01*
X84942Y135520D02*
G03*
X84942Y135520I-125J0D01*
G01*
D11*
X89151Y101343D02*
Y104143D01*
X89151Y101343D02*
X91951D01*
Y104143D01*
X89151Y104143D02*
X91951D01*
X107439Y110995D02*
Y113795D01*
X107439Y110995D02*
X110239D01*
Y113795D01*
X107439Y113795D02*
X110239D01*
X84492Y133670D02*
Y134470D01*
X83717Y133670D02*
X84492D01*
X81492D02*
Y134470D01*
Y133670D02*
X82267D01*
X101509Y144014D02*
X103159D01*
X105609D02*
X107234D01*
Y145389D01*
X101509Y144014D02*
Y145389D01*
X102880Y148209D02*
X105928D01*
X94143Y144014D02*
X95793D01*
X98243D02*
X99868D01*
Y145389D01*
X94143Y144014D02*
Y145389D01*
X95514Y148209D02*
X98562D01*
X108585Y146431D02*
X116205D01*
Y148971D01*
X108585D02*
X116205D01*
X108585Y146431D02*
Y148971D01*
X86797Y144014D02*
X88447D01*
X90897D02*
X92522D01*
Y145389D01*
X86797Y144014D02*
Y145389D01*
X88168Y148209D02*
X91216D01*
X79431Y144014D02*
X81081D01*
X83531D02*
X85156D01*
Y145389D01*
X79431Y144014D02*
Y145389D01*
X80802Y148209D02*
X83850D01*
X100828Y142264D02*
Y149122D01*
X107940D01*
Y142264D02*
Y149122D01*
X100828Y142264D02*
X107940D01*
X103749Y146201D02*
X105019D01*
X104384Y145566D02*
Y146836D01*
X93462Y142264D02*
Y149122D01*
X100574D01*
Y142264D02*
Y149122D01*
X93462Y142264D02*
X100574D01*
X96383Y146201D02*
X97653D01*
X97018Y145566D02*
Y146836D01*
X86116Y142264D02*
Y149122D01*
X93228D01*
Y142264D02*
Y149122D01*
X86116Y142264D02*
X93228D01*
X89037Y146201D02*
X90307D01*
X89672Y145566D02*
Y146836D01*
X78750Y142264D02*
Y149122D01*
X85862D01*
Y142264D02*
Y149122D01*
X78750Y142264D02*
X85862D01*
X81671Y146201D02*
X82941D01*
X82306Y145566D02*
Y146836D01*
D12*
X81644Y140892D02*
X81844D01*
Y137492D02*
Y140892D01*
X81644Y137492D02*
X81844D01*
X80044Y140892D02*
X80244D01*
X80044Y137492D02*
Y140892D01*
Y137492D02*
X80244D01*
X80044Y139192D02*
X81844D01*
X84774Y140892D02*
X84974D01*
Y137492D02*
Y140892D01*
X84774Y137492D02*
X84974D01*
X83174Y140892D02*
X83374D01*
X83174Y137492D02*
Y140892D01*
Y137492D02*
X83374D01*
X83174Y139192D02*
X84974D01*
X85549Y139130D02*
Y139330D01*
X88949D01*
Y139130D02*
Y139330D01*
X85549Y137530D02*
Y137730D01*
Y137530D02*
X88949D01*
Y137730D01*
X87249Y137530D02*
Y139330D01*
D13*
X119523Y149065D02*
X136763D01*
X119523Y137065D02*
X136763D01*
X119523D02*
Y149065D01*
X136763Y137065D02*
Y149065D01*
X59071Y148938D02*
X76311D01*
X59071Y136938D02*
X76311D01*
X59071Y148938D02*
X59071Y136938D01*
X76311D02*
Y148938D01*
X162703Y81059D02*
X179943D01*
X162703Y93059D02*
X179943D01*
Y81059D02*
Y93059D01*
X162703Y81059D02*
Y93059D01*
X16272Y81059D02*
Y93059D01*
X33512Y81059D02*
Y93059D01*
X16272D02*
X33512D01*
X16272Y81059D02*
X33512D01*
X76089Y81313D02*
Y93313D01*
X93329Y81313D02*
Y93313D01*
X76089D02*
X93329D01*
X76089Y81313D02*
X93329D01*
X102886D02*
Y93313D01*
X120126Y81313D02*
Y93313D01*
X102886D02*
X120126D01*
X102886Y81313D02*
X120126D01*
X58404Y130715D02*
Y142715D01*
X41164Y130715D02*
Y142715D01*
Y130715D02*
X58404D01*
X41164Y142715D02*
X58404D01*
X155305Y130588D02*
Y142588D01*
X138065Y130588D02*
Y142588D01*
Y130588D02*
X155305D01*
X138065Y142588D02*
X155305D01*
X108458Y117729D02*
X108204Y117983D01*
X107696D01*
X107442Y117729D01*
Y116713D01*
X107696Y116459D01*
X108204D01*
X108458Y116713D01*
Y117221D01*
X107950D01*
X108966Y116459D02*
Y117983D01*
X109981Y116459D01*
Y117983D01*
X110489D02*
Y116459D01*
X111251D01*
X111505Y116713D01*
Y117729D01*
X111251Y117983D01*
X110489D01*
X89281Y108077D02*
Y107061D01*
X89789Y106553D01*
X90297Y107061D01*
Y108077D01*
X91820Y107823D02*
X91566Y108077D01*
X91058D01*
X90805Y107823D01*
Y106807D01*
X91058Y106553D01*
X91566D01*
X91820Y106807D01*
X93344Y107823D02*
X93090Y108077D01*
X92582D01*
X92328Y107823D01*
Y106807D01*
X92582Y106553D01*
X93090D01*
X93344Y106807D01*
X77912Y135640D02*
X78928D01*
X78420D01*
Y134116D01*
X79436D02*
X79943D01*
X79689D01*
Y135640D01*
X79436Y135386D01*
X77007Y138670D02*
Y140194D01*
X77769D01*
X78023Y139940D01*
Y139432D01*
X77769Y139178D01*
X77007D01*
X77515D02*
X78023Y138670D01*
X78530Y139940D02*
X78784Y140194D01*
X79292D01*
X79546Y139940D01*
Y139686D01*
X79292Y139432D01*
X79038D01*
X79292D01*
X79546Y139178D01*
Y138924D01*
X79292Y138670D01*
X78784D01*
X78530Y138924D01*
X90311Y137767D02*
Y139291D01*
X91073D01*
X91327Y139037D01*
Y138529D01*
X91073Y138275D01*
X90311D01*
X90819D02*
X91327Y137767D01*
X92850D02*
X91835D01*
X92850Y138783D01*
Y139037D01*
X92596Y139291D01*
X92088D01*
X91835Y139037D01*
X85598Y139573D02*
Y141097D01*
X86360D01*
X86614Y140843D01*
Y140335D01*
X86360Y140081D01*
X85598D01*
X86106D02*
X86614Y139573D01*
X87122D02*
X87629D01*
X87375D01*
Y141097D01*
X87122Y140843D01*
X108737Y149835D02*
Y151358D01*
X109499D01*
X109753Y151104D01*
Y150596D01*
X109499Y150342D01*
X108737D01*
X110261Y149835D02*
X110769D01*
X110515D01*
Y151358D01*
X110261Y151104D01*
X123266Y129134D02*
Y130149D01*
X123012Y130403D01*
X122504D01*
X122250Y130149D01*
Y129134D01*
X122504Y128880D01*
X123012D01*
X122758Y129387D02*
X123266Y128880D01*
X123012D02*
X123266Y129134D01*
X124789Y128880D02*
X123774D01*
X124789Y129895D01*
Y130149D01*
X124535Y130403D01*
X124028D01*
X123774Y130149D01*
X37973Y129210D02*
Y130225D01*
X37719Y130479D01*
X37211D01*
X36957Y130225D01*
Y129210D01*
X37211Y128956D01*
X37719D01*
X37465Y129464D02*
X37973Y128956D01*
X37719D02*
X37973Y129210D01*
X38481Y128956D02*
X38988D01*
X38734D01*
Y130479D01*
X38481Y130225D01*
X41300Y145135D02*
Y143612D01*
X42062D01*
X42316Y143866D01*
Y144881D01*
X42062Y145135D01*
X41300D01*
X42824Y144881D02*
X43078Y145135D01*
X43586D01*
X43840Y144881D01*
Y144627D01*
X43586Y144373D01*
X43840Y144119D01*
Y143866D01*
X43586Y143612D01*
X43078D01*
X42824Y143866D01*
Y144119D01*
X43078Y144373D01*
X42824Y144627D01*
Y144881D01*
X43078Y144373D02*
X43586D01*
X138201Y145008D02*
Y143485D01*
X138963D01*
X139217Y143739D01*
Y144754D01*
X138963Y145008D01*
X138201D01*
X139725D02*
X140741D01*
Y144754D01*
X139725Y143739D01*
Y143485D01*
X16408Y95478D02*
Y93955D01*
X17170D01*
X17424Y94209D01*
Y95224D01*
X17170Y95478D01*
X16408D01*
X17932Y93955D02*
X18440D01*
X18186D01*
Y95478D01*
X17932Y95224D01*
X65773Y151129D02*
X65786Y149606D01*
X66548Y149612D01*
X66799Y149869D01*
X66791Y150884D01*
X66535Y151136D01*
X65773Y151129D01*
X68071Y149625D02*
X68058Y151149D01*
X67303Y150381D01*
X68319Y150389D01*
X130810Y151384D02*
Y149860D01*
X131572D01*
X131826Y150114D01*
Y151130D01*
X131572Y151384D01*
X130810D01*
X132334Y151130D02*
X132587Y151384D01*
X133095D01*
X133349Y151130D01*
Y150876D01*
X133095Y150622D01*
X132841D01*
X133095D01*
X133349Y150368D01*
Y150114D01*
X133095Y149860D01*
X132587D01*
X132334Y150114D01*
X76225Y95732D02*
Y94209D01*
X76987D01*
X77241Y94463D01*
Y95478D01*
X76987Y95732D01*
X76225D01*
X78765D02*
X77749D01*
Y94970D01*
X78257Y95224D01*
X78511D01*
X78765Y94970D01*
Y94463D01*
X78511Y94209D01*
X78003D01*
X77749Y94463D01*
X162833Y95478D02*
Y93955D01*
X163595D01*
X163848Y94209D01*
Y95224D01*
X163595Y95478D01*
X162833D01*
X165372D02*
X164864Y95224D01*
X164356Y94716D01*
Y94209D01*
X164610Y93955D01*
X165118D01*
X165372Y94209D01*
Y94462D01*
X165118Y94716D01*
X164356D01*
X103022Y95732D02*
Y94209D01*
X103784D01*
X104038Y94463D01*
Y95478D01*
X103784Y95732D01*
X103022D01*
X105562Y94209D02*
X104546D01*
X105562Y95224D01*
Y95478D01*
X105308Y95732D01*
X104800D01*
X104546Y95478D01*
D14*
X158000Y106821D02*
D03*
D15*
X140098Y106885D02*
D03*
D16*
X38000Y107000D02*
D03*
D17*
X55903Y106937D02*
D03*
D18*
X81492Y135070D02*
X84492D01*
X81492Y133670D02*
X84492D01*
Y135070D01*
X81492Y133670D02*
Y135070D01*
X80269Y140292D02*
X81619D01*
X80269Y138092D02*
X81619D01*
Y140292D01*
X80269Y138092D02*
Y140292D01*
X83399Y140292D02*
X84749D01*
X83399Y138092D02*
X84749D01*
Y140292D01*
X83399Y138092D02*
Y140292D01*
X86149Y137755D02*
Y139105D01*
X88349Y137755D02*
Y139105D01*
X86149D02*
X88349D01*
X86149Y137755D02*
X88349D01*
X82992Y133870D02*
Y134870D01*
X82492Y134370D02*
X83492D01*
X80944Y138692D02*
Y139692D01*
X80444Y139192D02*
X81444D01*
X84074Y138692D02*
Y139692D01*
X83574Y139192D02*
X84574D01*
X86749Y138430D02*
X87749D01*
X87249Y137930D02*
Y138930D01*
D19*
X81242Y135970D02*
X84742D01*
X81242Y132770D02*
X84742D01*
Y135970D01*
X81242Y132770D02*
Y135970D01*
X79994Y140892D02*
X81894D01*
X79994Y137492D02*
X81894D01*
Y140892D01*
X79994Y137492D02*
Y140892D01*
X83124Y140892D02*
X85024D01*
X83124Y137492D02*
X85024D01*
Y140892D01*
X83124Y137492D02*
Y140892D01*
X85549Y137480D02*
Y139380D01*
X88949Y137480D02*
Y139380D01*
X85549D02*
X88949D01*
X85549Y137480D02*
X88949D01*
M02*
