G04*
G04 #@! TF.GenerationSoftware,Altium Limited,Altium Designer,18.1.9 (240)*
G04*
G04 Layer_Color=2752767*
%FSLAX43Y43*%
%MOMM*%
G71*
G01*
G75*
%ADD11C,0.200*%
%ADD13C,0.254*%
%ADD18C,0.100*%
%ADD19C,0.050*%
%ADD50C,0.051*%
%ADD51C,0.068*%
D11*
X100828Y142264D02*
Y149122D01*
X107940D01*
Y142264D02*
Y149122D01*
X100828Y142264D02*
X107940D01*
X103749Y146201D02*
X105019D01*
X104384Y145566D02*
Y146836D01*
X93462Y142264D02*
Y149122D01*
X100574D01*
Y142264D02*
Y149122D01*
X93462Y142264D02*
X100574D01*
X96383Y146201D02*
X97653D01*
X97018Y145566D02*
Y146836D01*
X86116Y142264D02*
Y149122D01*
X93228D01*
Y142264D02*
Y149122D01*
X86116Y142264D02*
X93228D01*
X89037Y146201D02*
X90307D01*
X89672Y145566D02*
Y146836D01*
X78750Y142264D02*
Y149122D01*
X85862D01*
Y142264D02*
Y149122D01*
X78750Y142264D02*
X85862D01*
X81671Y146201D02*
X82941D01*
X82306Y145566D02*
Y146836D01*
D13*
X185508Y81026D02*
G03*
X124513Y164415I-87500J0D01*
G01*
X71503Y164415D02*
G03*
X10508Y81026I26505J-83389D01*
G01*
X71508Y149211D02*
X124508D01*
Y164400D01*
X71508Y149211D02*
Y164400D01*
X10544Y81026D02*
X185544D01*
D18*
X81492Y135070D02*
X84492D01*
X81492Y133670D02*
X84492D01*
Y135070D01*
X81492Y133670D02*
Y135070D01*
X80269Y140292D02*
X81619D01*
X80269Y138092D02*
X81619D01*
Y140292D01*
X80269Y138092D02*
Y140292D01*
X83399Y140292D02*
X84749D01*
X83399Y138092D02*
X84749D01*
Y140292D01*
X83399Y138092D02*
Y140292D01*
X86149Y137755D02*
Y139105D01*
X88349Y137755D02*
Y139105D01*
X86149D02*
X88349D01*
X86149Y137755D02*
X88349D01*
X82992Y133870D02*
Y134870D01*
X82492Y134370D02*
X83492D01*
X80944Y138692D02*
Y139692D01*
X80444Y139192D02*
X81444D01*
X84074Y138692D02*
Y139692D01*
X83574Y139192D02*
X84574D01*
X86749Y138430D02*
X87749D01*
X87249Y137930D02*
Y138930D01*
D19*
X81242Y135970D02*
X84742D01*
X81242Y132770D02*
X84742D01*
Y135970D01*
X81242Y132770D02*
Y135970D01*
X79994Y140892D02*
X81894D01*
X79994Y137492D02*
X81894D01*
Y140892D01*
X79994Y137492D02*
Y140892D01*
X83124Y140892D02*
X85024D01*
X83124Y137492D02*
X85024D01*
Y140892D01*
X83124Y137492D02*
Y140892D01*
X85549Y137480D02*
Y139380D01*
X88949Y137480D02*
Y139380D01*
X85549D02*
X88949D01*
X85549Y137480D02*
X88949D01*
D50*
X90348Y102540D02*
Y102946D01*
X90754D01*
Y102540D01*
X90348D01*
X108636Y112192D02*
Y112598D01*
X109042D01*
Y112192D01*
X108636D01*
X123063Y138862D02*
X122860Y139268D01*
X123266D01*
X123063Y138862D01*
X128143D02*
X127940Y139268D01*
X128346D01*
X128143Y138862D01*
X133223D02*
X133020Y139268D01*
X133426D01*
X133223Y138862D01*
X62611Y138735D02*
X62408Y139141D01*
X62814D01*
X62611Y138735D01*
X67691D02*
X67488Y139141D01*
X67894D01*
X67691Y138735D01*
X72771D02*
X72568Y139141D01*
X72974D01*
X72771Y138735D01*
X176403Y90856D02*
X176200Y91262D01*
X176606D01*
X176403Y90856D01*
X171323D02*
X171120Y91262D01*
X171526D01*
X171323Y90856D01*
X166243D02*
X166040Y91262D01*
X166446D01*
X166243Y90856D01*
X155000Y91618D02*
X155102Y91719D01*
X155203D01*
X155102Y91821D01*
X155203Y91923D01*
X155102D01*
X155000Y92024D01*
X154898Y91923D01*
X154797D01*
X154898Y91821D01*
X154797Y91719D01*
X154898D01*
X155000Y91618D01*
Y121618D02*
X155102Y121719D01*
X155203D01*
X155102Y121821D01*
X155203Y121923D01*
X155102D01*
X155000Y122024D01*
X154898Y121923D01*
X154797D01*
X154898Y121821D01*
X154797Y121719D01*
X154898D01*
X155000Y121618D01*
X125000Y91618D02*
X125102Y91719D01*
X125203D01*
X125102Y91821D01*
X125203Y91923D01*
X125102D01*
X125000Y92024D01*
X124898Y91923D01*
X124797D01*
X124898Y91821D01*
X124797Y91719D01*
X124898D01*
X125000Y91618D01*
Y121618D02*
X125102Y121719D01*
X125203D01*
X125102Y121821D01*
X125203Y121923D01*
X125102D01*
X125000Y122024D01*
X124898Y121923D01*
X124797D01*
X124898Y121821D01*
X124797Y121719D01*
X124898D01*
X125000Y121618D01*
X157497Y100618D02*
X157598Y100821D01*
X157497Y101024D01*
X157700Y100923D01*
X157903Y101024D01*
X157802Y100821D01*
X157903Y100618D01*
X157700Y100719D01*
X157497Y100618D01*
X150647Y87068D02*
X150748Y87271D01*
X150647Y87474D01*
X150850Y87373D01*
X151053Y87474D01*
X150952Y87271D01*
X151053Y87068D01*
X150850Y87169D01*
X150647Y87068D01*
X146247D02*
X146348Y87271D01*
X146247Y87474D01*
X146450Y87373D01*
X146653Y87474D01*
X146552Y87271D01*
X146653Y87068D01*
X146450Y87169D01*
X146247Y87068D01*
X138047D02*
X138148Y87271D01*
X138047Y87474D01*
X138250Y87373D01*
X138453Y87474D01*
X138352Y87271D01*
X138453Y87068D01*
X138250Y87169D01*
X138047Y87068D01*
X142147D02*
X142248Y87271D01*
X142147Y87474D01*
X142350Y87373D01*
X142553Y87474D01*
X142452Y87271D01*
X142553Y87068D01*
X142350Y87169D01*
X142147Y87068D01*
X133947D02*
X134048Y87271D01*
X133947Y87474D01*
X134150Y87373D01*
X134353Y87474D01*
X134252Y87271D01*
X134353Y87068D01*
X134150Y87169D01*
X133947Y87068D01*
X129547D02*
X129648Y87271D01*
X129547Y87474D01*
X129750Y87373D01*
X129953Y87474D01*
X129852Y87271D01*
X129953Y87068D01*
X129750Y87169D01*
X129547Y87068D01*
X150647Y126268D02*
X150748Y126471D01*
X150647Y126674D01*
X150850Y126573D01*
X151053Y126674D01*
X150952Y126471D01*
X151053Y126268D01*
X150850Y126369D01*
X150647Y126268D01*
X146247D02*
X146348Y126471D01*
X146247Y126674D01*
X146450Y126573D01*
X146653Y126674D01*
X146552Y126471D01*
X146653Y126268D01*
X146450Y126369D01*
X146247Y126268D01*
X142147D02*
X142248Y126471D01*
X142147Y126674D01*
X142350Y126573D01*
X142553Y126674D01*
X142452Y126471D01*
X142553Y126268D01*
X142350Y126369D01*
X142147Y126268D01*
X133947D02*
X134048Y126471D01*
X133947Y126674D01*
X134150Y126573D01*
X134353Y126674D01*
X134252Y126471D01*
X134353Y126268D01*
X134150Y126369D01*
X133947Y126268D01*
X138047D02*
X138148Y126471D01*
X138047Y126674D01*
X138250Y126573D01*
X138453Y126674D01*
X138352Y126471D01*
X138453Y126268D01*
X138250Y126369D01*
X138047Y126268D01*
X129547D02*
X129648Y126471D01*
X129547Y126674D01*
X129750Y126573D01*
X129953Y126674D01*
X129852Y126471D01*
X129953Y126268D01*
X129750Y126369D01*
X129547Y126268D01*
X157497Y104818D02*
X157598Y105021D01*
X157497Y105224D01*
X157700Y105123D01*
X157903Y105224D01*
X157802Y105021D01*
X157903Y104818D01*
X157700Y104919D01*
X157497Y104818D01*
X41000Y121797D02*
X41102Y121898D01*
X41203D01*
X41102Y122000D01*
X41203Y122102D01*
X41102D01*
X41000Y122203D01*
X40898Y122102D01*
X40797D01*
X40898Y122000D01*
X40797Y121898D01*
X40898D01*
X41000Y121797D01*
Y91797D02*
X41102Y91898D01*
X41203D01*
X41102Y92000D01*
X41203Y92102D01*
X41102D01*
X41000Y92203D01*
X40898Y92102D01*
X40797D01*
X40898Y92000D01*
X40797Y91898D01*
X40898D01*
X41000Y91797D01*
X71000Y121797D02*
X71102Y121898D01*
X71203D01*
X71102Y122000D01*
X71203Y122102D01*
X71102D01*
X71000Y122203D01*
X70898Y122102D01*
X70797D01*
X70898Y122000D01*
X70797Y121898D01*
X70898D01*
X71000Y121797D01*
Y91797D02*
X71102Y91898D01*
X71203D01*
X71102Y92000D01*
X71203Y92102D01*
X71102D01*
X71000Y92203D01*
X70898Y92102D01*
X70797D01*
X70898Y92000D01*
X70797Y91898D01*
X70898D01*
X71000Y91797D01*
X38097Y112797D02*
X38198Y113000D01*
X38097Y113203D01*
X38300Y113102D01*
X38503Y113203D01*
X38402Y113000D01*
X38503Y112797D01*
X38300Y112898D01*
X38097Y112797D01*
X44947Y126347D02*
X45048Y126550D01*
X44947Y126753D01*
X45150Y126652D01*
X45353Y126753D01*
X45252Y126550D01*
X45353Y126347D01*
X45150Y126448D01*
X44947Y126347D01*
X49347D02*
X49448Y126550D01*
X49347Y126753D01*
X49550Y126652D01*
X49753Y126753D01*
X49652Y126550D01*
X49753Y126347D01*
X49550Y126448D01*
X49347Y126347D01*
X57547D02*
X57648Y126550D01*
X57547Y126753D01*
X57750Y126652D01*
X57953Y126753D01*
X57852Y126550D01*
X57953Y126347D01*
X57750Y126448D01*
X57547Y126347D01*
X53447D02*
X53548Y126550D01*
X53447Y126753D01*
X53650Y126652D01*
X53853Y126753D01*
X53752Y126550D01*
X53853Y126347D01*
X53650Y126448D01*
X53447Y126347D01*
X61647D02*
X61748Y126550D01*
X61647Y126753D01*
X61850Y126652D01*
X62053Y126753D01*
X61952Y126550D01*
X62053Y126347D01*
X61850Y126448D01*
X61647Y126347D01*
X66047D02*
X66148Y126550D01*
X66047Y126753D01*
X66250Y126652D01*
X66453Y126753D01*
X66352Y126550D01*
X66453Y126347D01*
X66250Y126448D01*
X66047Y126347D01*
X44947Y87147D02*
X45048Y87350D01*
X44947Y87553D01*
X45150Y87452D01*
X45353Y87553D01*
X45252Y87350D01*
X45353Y87147D01*
X45150Y87248D01*
X44947Y87147D01*
X49347D02*
X49448Y87350D01*
X49347Y87553D01*
X49550Y87452D01*
X49753Y87553D01*
X49652Y87350D01*
X49753Y87147D01*
X49550Y87248D01*
X49347Y87147D01*
X53447D02*
X53548Y87350D01*
X53447Y87553D01*
X53650Y87452D01*
X53853Y87553D01*
X53752Y87350D01*
X53853Y87147D01*
X53650Y87248D01*
X53447Y87147D01*
X61647D02*
X61748Y87350D01*
X61647Y87553D01*
X61850Y87452D01*
X62053Y87553D01*
X61952Y87350D01*
X62053Y87147D01*
X61850Y87248D01*
X61647Y87147D01*
X57547D02*
X57648Y87350D01*
X57547Y87553D01*
X57750Y87452D01*
X57953Y87553D01*
X57852Y87350D01*
X57953Y87147D01*
X57750Y87248D01*
X57547Y87147D01*
X66047D02*
X66148Y87350D01*
X66047Y87553D01*
X66250Y87452D01*
X66453Y87553D01*
X66352Y87350D01*
X66453Y87147D01*
X66250Y87248D01*
X66047Y87147D01*
X38097Y108597D02*
X38198Y108800D01*
X38097Y109003D01*
X38300Y108902D01*
X38503Y109003D01*
X38402Y108800D01*
X38503Y108597D01*
X38300Y108698D01*
X38097Y108597D01*
X19812Y90856D02*
X19609Y91262D01*
X20015D01*
X19812Y90856D01*
X24892D02*
X24689Y91262D01*
X25095D01*
X24892Y90856D01*
X29972D02*
X29769Y91262D01*
X30175D01*
X29972Y90856D01*
X79629Y91110D02*
X79426Y91516D01*
X79832D01*
X79629Y91110D01*
X84709D02*
X84506Y91516D01*
X84912D01*
X84709Y91110D01*
X89789D02*
X89586Y91516D01*
X89992D01*
X89789Y91110D01*
X106426D02*
X106223Y91516D01*
X106629D01*
X106426Y91110D01*
X111506D02*
X111303Y91516D01*
X111709D01*
X111506Y91110D01*
X116586D02*
X116383Y91516D01*
X116789D01*
X116586Y91110D01*
X54864Y132512D02*
X54661Y132918D01*
X55067D01*
X54864Y132512D01*
X49784D02*
X49581Y132918D01*
X49987D01*
X49784Y132512D01*
X44704D02*
X44501Y132918D01*
X44907D01*
X44704Y132512D01*
X151765Y132385D02*
X151562Y132791D01*
X151968D01*
X151765Y132385D01*
X146685D02*
X146482Y132791D01*
X146888D01*
X146685Y132385D01*
X141605D02*
X141402Y132791D01*
X141808D01*
X141605Y132385D01*
X19710Y104919D02*
Y104818D01*
X19914D01*
Y104919D01*
X20015D01*
Y105123D01*
X19914D01*
Y105224D01*
X19710D01*
Y105123D01*
X19609D01*
Y104919D01*
X19710D01*
X67589Y159283D02*
Y159182D01*
X67793D01*
Y159283D01*
X67894D01*
Y159487D01*
X67793D01*
Y159588D01*
X67589D01*
Y159487D01*
X67488D01*
Y159283D01*
X67589D01*
X176301Y104919D02*
Y104818D01*
X176505D01*
Y104919D01*
X176606D01*
Y105123D01*
X176505D01*
Y105224D01*
X176301D01*
Y105123D01*
X176200D01*
Y104919D01*
X176301D01*
X97942Y86004D02*
Y85903D01*
X98146D01*
Y86004D01*
X98247D01*
Y86208D01*
X98146D01*
Y86309D01*
X97942D01*
Y86208D01*
X97841D01*
Y86004D01*
X97942D01*
X128041Y159283D02*
Y159182D01*
X128245D01*
Y159283D01*
X128346D01*
Y159487D01*
X128245D01*
Y159588D01*
X128041D01*
Y159487D01*
X127940D01*
Y159283D01*
X128041D01*
D51*
X110058Y147701D02*
G03*
X110058Y147701I-203J0D01*
G01*
X112598D02*
G03*
X112598Y147701I-203J0D01*
G01*
X115138D02*
G03*
X115138Y147701I-203J0D01*
G01*
M02*
