G04*
G04 #@! TF.GenerationSoftware,Altium Limited,Altium Designer,18.1.9 (240)*
G04*
G04 Layer_Physical_Order=2*
G04 Layer_Color=16711680*
%FSLAX43Y43*%
%MOMM*%
G71*
G01*
G75*
%ADD11C,0.200*%
%ADD18C,0.100*%
%ADD19C,0.050*%
%ADD40C,4.000*%
%ADD41R,7.500X7.500*%
%ADD42R,1.500X1.500*%
%ADD43C,1.500*%
%ADD44R,1.524X1.524*%
%ADD45C,3.508*%
%ADD46R,3.000X3.000*%
%ADD47R,3.500X3.100*%
%ADD48R,3.100X3.100*%
%ADD49C,5.000*%
D11*
X100828Y142264D02*
Y149122D01*
X107940D01*
Y142264D02*
Y149122D01*
X100828Y142264D02*
X107940D01*
X103749Y146201D02*
X105019D01*
X104384Y145566D02*
Y146836D01*
X93462Y142264D02*
Y149122D01*
X100574D01*
Y142264D02*
Y149122D01*
X93462Y142264D02*
X100574D01*
X96383Y146201D02*
X97653D01*
X97018Y145566D02*
Y146836D01*
X86116Y142264D02*
Y149122D01*
X93228D01*
Y142264D02*
Y149122D01*
X86116Y142264D02*
X93228D01*
X89037Y146201D02*
X90307D01*
X89672Y145566D02*
Y146836D01*
X78750Y142264D02*
Y149122D01*
X85862D01*
Y142264D02*
Y149122D01*
X78750Y142264D02*
X85862D01*
X81671Y146201D02*
X82941D01*
X82306Y145566D02*
Y146836D01*
D18*
X81492Y135070D02*
X84492D01*
X81492Y133670D02*
X84492D01*
Y135070D01*
X81492Y133670D02*
Y135070D01*
X80269Y140292D02*
X81619D01*
X80269Y138092D02*
X81619D01*
Y140292D01*
X80269Y138092D02*
Y140292D01*
X83399Y140292D02*
X84749D01*
X83399Y138092D02*
X84749D01*
Y140292D01*
X83399Y138092D02*
Y140292D01*
X86149Y137755D02*
Y139105D01*
X88349Y137755D02*
Y139105D01*
X86149D02*
X88349D01*
X86149Y137755D02*
X88349D01*
X82992Y133870D02*
Y134870D01*
X82492Y134370D02*
X83492D01*
X80944Y138692D02*
Y139692D01*
X80444Y139192D02*
X81444D01*
X84074Y138692D02*
Y139692D01*
X83574Y139192D02*
X84574D01*
X86749Y138430D02*
X87749D01*
X87249Y137930D02*
Y138930D01*
D19*
X81242Y135970D02*
X84742D01*
X81242Y132770D02*
X84742D01*
Y135970D01*
X81242Y132770D02*
Y135970D01*
X79994Y140892D02*
X81894D01*
X79994Y137492D02*
X81894D01*
Y140892D01*
X79994Y137492D02*
Y140892D01*
X83124Y140892D02*
X85024D01*
X83124Y137492D02*
X85024D01*
Y140892D01*
X83124Y137492D02*
Y140892D01*
X85549Y137480D02*
Y139380D01*
X88949Y137480D02*
Y139380D01*
X85549D02*
X88949D01*
X85549Y137480D02*
X88949D01*
D40*
X130221Y105075D02*
X157700D01*
X90551Y102743D02*
X90678Y102616D01*
X127762D01*
X90424D02*
X90551Y102743D01*
X44484Y102616D02*
X90424D01*
X40562Y112554D02*
X108839D01*
X38300Y113000D02*
X40116D01*
X40562Y112554D01*
X108839Y112395D02*
Y112554D01*
X106426Y87271D02*
X129750D01*
X108839Y112395D02*
X163068D01*
X157700Y100821D02*
X163085D01*
X163068Y100838D02*
X163085Y100821D01*
X163068Y100838D02*
Y112395D01*
X127762Y102616D02*
X130221Y105075D01*
X38300Y108746D02*
X38354D01*
X44484Y102616D01*
X145036Y95885D02*
X166116D01*
X123063Y139065D02*
X129750Y132378D01*
Y126471D02*
Y132378D01*
X133223Y139065D02*
X138250Y134038D01*
Y126471D02*
Y134038D01*
X146450Y132353D02*
X146685Y132588D01*
X146450Y126471D02*
Y132353D01*
X166243Y91525D02*
Y95758D01*
X166116Y95885D02*
X166243Y95758D01*
X142646Y93495D02*
X145036Y95885D01*
X142646Y87567D02*
Y93495D01*
X142350Y87271D02*
X142646Y87567D01*
X150850Y87271D02*
X176530D01*
X176403Y91059D02*
X176530Y90932D01*
Y87271D02*
Y90932D01*
X111506Y91525D02*
X111718D01*
X116243Y96050D01*
X134150D01*
Y87271D02*
Y96050D01*
X106426Y87271D02*
Y91313D01*
X49404Y87204D02*
X49550Y87350D01*
X49404Y85588D02*
Y87204D01*
X49403Y85587D02*
X49404Y85588D01*
X49403Y83439D02*
Y85587D01*
X45008Y87492D02*
Y93660D01*
Y87492D02*
X45150Y87350D01*
X47255Y83439D02*
X49403D01*
X46912Y83096D02*
X47255Y83439D01*
X32855Y83096D02*
X46912D01*
X24892Y91059D02*
X32855Y83096D01*
X19812Y91059D02*
X20070Y91317D01*
Y96008D01*
X42660D01*
X45008Y93660D01*
X79338Y91604D02*
X79629D01*
X58046Y87350D02*
Y91154D01*
X74934Y96008D02*
X79338Y91604D01*
X68892Y96008D02*
X74934D01*
X64038Y91154D02*
X68892Y96008D01*
X58046Y91154D02*
X64038D01*
X85826Y87350D02*
X89789Y91313D01*
X66250Y87350D02*
X85826D01*
X49550Y132481D02*
X49784Y132715D01*
X49550Y126550D02*
Y132481D01*
X57880Y134207D02*
X62611Y138938D01*
X57880Y126680D02*
Y134207D01*
X57750Y126550D02*
X57880Y126680D01*
X66250Y132417D02*
X72771Y138938D01*
X66250Y126550D02*
Y132417D01*
D41*
X90551Y102743D02*
D03*
X108839Y112395D02*
D03*
D42*
X109855Y147701D02*
D03*
D43*
X112395D02*
D03*
X114935D02*
D03*
D44*
X123063Y139065D02*
D03*
X128143D02*
D03*
X133223D02*
D03*
X62611Y138938D02*
D03*
X67691D02*
D03*
X72771D02*
D03*
X176403Y91059D02*
D03*
X171323D02*
D03*
X166243D02*
D03*
X19812D02*
D03*
X24892D02*
D03*
X29972D02*
D03*
X79629Y91313D02*
D03*
X84709D02*
D03*
X89789D02*
D03*
X106426D02*
D03*
X111506D02*
D03*
X116586D02*
D03*
X54864Y132715D02*
D03*
X49784D02*
D03*
X44704D02*
D03*
X151765Y132588D02*
D03*
X146685D02*
D03*
X141605D02*
D03*
D45*
X155000Y91821D02*
D03*
Y121821D02*
D03*
X125000Y91821D02*
D03*
Y121821D02*
D03*
X41000Y122000D02*
D03*
Y92000D02*
D03*
X71000Y122000D02*
D03*
Y92000D02*
D03*
D46*
X157700Y100821D02*
D03*
Y105021D02*
D03*
X38300Y113000D02*
D03*
Y108800D02*
D03*
D47*
X150850Y87271D02*
D03*
X129750D02*
D03*
X150850Y126471D02*
D03*
X129750D02*
D03*
X45150Y126550D02*
D03*
X66250D02*
D03*
X45150Y87350D02*
D03*
X66250D02*
D03*
D48*
X146450Y87271D02*
D03*
X138250D02*
D03*
X142350D02*
D03*
X134150D02*
D03*
X146450Y126471D02*
D03*
X142350D02*
D03*
X134150D02*
D03*
X138250D02*
D03*
X49550Y126550D02*
D03*
X57750D02*
D03*
X53650D02*
D03*
X61850D02*
D03*
X49550Y87350D02*
D03*
X53650D02*
D03*
X61850D02*
D03*
X57750D02*
D03*
D49*
X19812Y105021D02*
D03*
X67691Y159385D02*
D03*
X176403Y105021D02*
D03*
X98044Y86106D02*
D03*
X128143Y159385D02*
D03*
M02*
