G04*
G04 #@! TF.GenerationSoftware,Altium Limited,Altium Designer,18.1.9 (240)*
G04*
G04 Layer_Color=8421504*
%FSLAX43Y43*%
%MOMM*%
G71*
G01*
G75*
%ADD11C,0.200*%
%ADD18C,0.100*%
%ADD19C,0.050*%
%ADD20R,0.802X0.972*%
%ADD21R,1.350X1.150*%
%ADD22R,1.150X1.350*%
%ADD23R,1.000X2.800*%
%ADD24R,0.600X1.700*%
D11*
X100828Y142264D02*
Y149122D01*
X107940D01*
Y142264D02*
Y149122D01*
X100828Y142264D02*
X107940D01*
X103749Y146201D02*
X105019D01*
X104384Y145566D02*
Y146836D01*
X93462Y142264D02*
Y149122D01*
X100574D01*
Y142264D02*
Y149122D01*
X93462Y142264D02*
X100574D01*
X96383Y146201D02*
X97653D01*
X97018Y145566D02*
Y146836D01*
X86116Y142264D02*
Y149122D01*
X93228D01*
Y142264D02*
Y149122D01*
X86116Y142264D02*
X93228D01*
X89037Y146201D02*
X90307D01*
X89672Y145566D02*
Y146836D01*
X78750Y142264D02*
Y149122D01*
X85862D01*
Y142264D02*
Y149122D01*
X78750Y142264D02*
X85862D01*
X81671Y146201D02*
X82941D01*
X82306Y145566D02*
Y146836D01*
D18*
X81492Y135070D02*
X84492D01*
X81492Y133670D02*
X84492D01*
Y135070D01*
X81492Y133670D02*
Y135070D01*
X80269Y140292D02*
X81619D01*
X80269Y138092D02*
X81619D01*
Y140292D01*
X80269Y138092D02*
Y140292D01*
X83399Y140292D02*
X84749D01*
X83399Y138092D02*
X84749D01*
Y140292D01*
X83399Y138092D02*
Y140292D01*
X86149Y137755D02*
Y139105D01*
X88349Y137755D02*
Y139105D01*
X86149D02*
X88349D01*
X86149Y137755D02*
X88349D01*
X82992Y133870D02*
Y134870D01*
X82492Y134370D02*
X83492D01*
X80944Y138692D02*
Y139692D01*
X80444Y139192D02*
X81444D01*
X84074Y138692D02*
Y139692D01*
X83574Y139192D02*
X84574D01*
X86749Y138430D02*
X87749D01*
X87249Y137930D02*
Y138930D01*
D19*
X81242Y135970D02*
X84742D01*
X81242Y132770D02*
X84742D01*
Y135970D01*
X81242Y132770D02*
Y135970D01*
X79994Y140892D02*
X81894D01*
X79994Y137492D02*
X81894D01*
Y140892D01*
X79994Y137492D02*
Y140892D01*
X83124Y140892D02*
X85024D01*
X83124Y137492D02*
X85024D01*
Y140892D01*
X83124Y137492D02*
Y140892D01*
X85549Y137480D02*
Y139380D01*
X88949Y137480D02*
Y139380D01*
X85549D02*
X88949D01*
X85549Y137480D02*
X88949D01*
D20*
X83942Y135255D02*
D03*
X82042D02*
D03*
X82992Y133485D02*
D03*
D21*
X80944Y140067D02*
D03*
Y138317D02*
D03*
X84074Y140067D02*
D03*
Y138317D02*
D03*
D22*
X86374Y138430D02*
D03*
X88124D02*
D03*
D23*
X106859Y147114D02*
D03*
X101909D02*
D03*
X99493D02*
D03*
X94543D02*
D03*
X92147D02*
D03*
X87197D02*
D03*
X84781D02*
D03*
X79831D02*
D03*
D24*
X105009Y143764D02*
D03*
X103759D02*
D03*
X97643D02*
D03*
X96393D02*
D03*
X90297D02*
D03*
X89047D02*
D03*
X82931D02*
D03*
X81681D02*
D03*
M02*
